<?xml version="1.0" encoding="UTF-8"?>
<svg xmlns="http://www.w3.org/2000/svg" xmlns:xlink="http://www.w3.org/1999/xlink" width="60px" height="60px" viewBox="0 0 100 100" version="1.1">
<g id="surface700170">
<rect x="0" y="0" width="100" height="100" style="fill:rgb(34.901961%,35.686275%,36.862745%);fill-opacity:1;stroke:none;"/>
<path style=" stroke:none;fill-rule:evenodd;fill:rgb(100%,100%,100%);fill-opacity:1;" d="M 50 12.5 C 29.285156 12.5 12.5 29.285156 12.5 50 C 12.5 66.566406 23.242188 80.628906 38.148438 85.582031 C 40.027344 85.925781 40.710938 84.777344 40.710938 83.777344 C 40.710938 82.886719 40.671875 80.53125 40.660156 77.40625 C 30.226562 79.664062 28.027344 72.375 28.027344 72.375 C 26.320312 68.042969 23.863281 66.882812 23.863281 66.882812 C 20.457031 64.5625 24.121094 64.613281 24.121094 64.613281 C 27.882812 64.878906 29.859375 68.46875 29.859375 68.46875 C 33.203125 74.207031 38.636719 72.546875 40.773438 71.59375 C 41.113281 69.164062 42.089844 67.515625 43.152344 66.578125 C 34.828125 65.636719 26.074219 62.414062 26.074219 48.046875 C 26.074219 43.945312 27.539062 40.601562 29.933594 37.976562 C 29.554688 37.035156 28.257812 33.214844 30.296875 28.050781 C 30.296875 28.050781 33.449219 27.050781 40.613281 31.898438 C 43.605469 31.066406 46.8125 30.652344 50 30.640625 C 53.1875 30.652344 56.398438 31.066406 59.386719 31.898438 C 66.554688 27.050781 69.691406 28.050781 69.691406 28.050781 C 71.742188 33.214844 70.460938 37.035156 70.070312 37.976562 C 72.472656 40.601562 73.914062 43.945312 73.914062 48.046875 C 73.914062 62.453125 65.148438 65.613281 56.800781 66.554688 C 58.140625 67.699219 59.339844 69.996094 59.339844 73.488281 C 59.339844 78.503906 59.300781 82.542969 59.300781 83.777344 C 59.300781 84.777344 59.972656 85.949219 61.878906 85.582031 C 76.769531 80.617188 87.5 66.566406 87.5 50 C 87.5 29.285156 70.714844 12.5 50 12.5 Z M 50 12.5 "/>
</g>
</svg>
