<?xml version="1.0" encoding="UTF-8"?>
<svg xmlns="http://www.w3.org/2000/svg" xmlns:xlink="http://www.w3.org/1999/xlink" width="200px" height="200px" viewBox="0 0 150 150" version="1.1">
<g id="surface1332272">
<path style=" stroke:none;fill-rule:nonzero;fill:rgb(60.784314%,34.901961%,71.372549%);fill-opacity:1;" d="M 72 6 C 50.496094 6 33 30.878906 33 61.457031 C 33 76.742188 37.453125 90.464844 44.523438 100.476562 C 42.835938 102.675781 42 105.34375 42 108 C 42 110.917969 42.957031 113.875 45.007812 116.179688 C 47.054688 118.484375 50.25 120 54 120 C 57.75 120 60.945312 118.484375 62.992188 116.179688 C 65.042969 113.875 66 110.917969 66 108 C 66 105.082031 65.042969 102.125 62.992188 99.820312 C 60.945312 97.515625 57.75 96 54 96 C 52.253906 96 50.648438 96.355469 49.203125 96.9375 C 42.953125 87.953125 39 75.433594 39 61.457031 C 39 34.1875 53.804688 12 72 12 C 88.257812 12 101.769531 29.726562 104.472656 52.953125 C 106.59375 53.757812 108.699219 54.667969 110.785156 55.671875 C 108.738281 27.800781 92.128906 6 72 6 Z M 66 45 C 62.25 45 59.054688 46.515625 57.007812 48.820312 C 54.957031 51.125 54 54.082031 54 57 C 54 59.917969 54.957031 62.875 57.007812 65.179688 C 59.054688 67.484375 62.25 69 66 69 C 69.75 69 72.945312 67.484375 74.992188 65.179688 C 76.273438 63.738281 77.082031 62.03125 77.542969 60.253906 C 88.277344 59.789062 100.335938 62.960938 111.425781 69.609375 C 135.109375 83.804688 147.039062 108.558594 138.015625 124.789062 C 134.796875 130.582031 129.171875 134.691406 121.757812 136.675781 C 111.371094 139.460938 98.613281 137.75 86.4375 132.242188 C 84.679688 133.652344 82.820312 134.988281 80.90625 136.285156 C 90.882812 141.320312 101.4375 143.988281 111.1875 143.988281 C 115.421875 143.988281 119.5 143.492188 123.308594 142.472656 C 132.332031 140.054688 139.234375 134.945312 143.261719 127.699219 C 153.832031 108.671875 140.9375 80.308594 114.507812 64.464844 C 102.582031 57.308594 89.476562 53.808594 77.660156 54.195312 C 77.234375 52.25 76.382812 50.382812 74.992188 48.820312 C 72.945312 46.515625 69.75 45 66 45 Z M 66 51 C 68.25 51 69.554688 51.734375 70.507812 52.804688 C 71.457031 53.875 72 55.417969 72 57 C 72 58.582031 71.457031 60.125 70.507812 61.195312 C 69.554688 62.265625 68.25 63 66 63 C 63.75 63 62.445312 62.265625 61.492188 61.195312 C 60.542969 60.125 60 58.582031 60 57 C 60 55.417969 60.542969 53.875 61.492188 52.804688 C 62.445312 51.734375 63.75 51 66 51 Z M 27.484375 69.996094 C 6.59375 86.316406 -2.695312 110.71875 6.742188 127.699219 C 10.773438 134.945312 17.675781 140.050781 26.695312 142.464844 C 30.507812 143.484375 34.585938 143.988281 38.820312 143.988281 C 50.21875 143.988281 62.734375 140.363281 74.121094 133.535156 C 87.789062 125.339844 97.632812 113.800781 102.640625 101.933594 C 106.101562 101.769531 109.066406 100.347656 110.996094 98.179688 C 113.042969 95.875 114 92.917969 114 90 C 114 87.082031 113.042969 84.125 110.996094 81.820312 C 108.945312 79.515625 105.75 78 102 78 C 98.25 78 95.054688 79.515625 93.007812 81.820312 C 90.957031 84.125 90 87.082031 90 90 C 90 92.917969 90.957031 95.875 93.007812 98.179688 C 94.003906 99.300781 95.28125 100.222656 96.75 100.886719 C 92.042969 111.113281 83.144531 121.128906 71.035156 128.390625 C 56.785156 136.9375 40.789062 140.035156 28.242188 136.675781 C 20.828125 134.691406 15.207031 130.582031 11.988281 124.785156 C 4.363281 111.066406 11.746094 91.285156 28.507812 76.902344 C 28.070312 74.652344 27.730469 72.34375 27.488281 69.996094 Z M 102 84 C 104.25 84 105.554688 84.734375 106.507812 85.804688 C 107.457031 86.875 108 88.417969 108 90 C 108 91.582031 107.457031 93.125 106.507812 94.195312 C 105.554688 95.265625 104.25 96 102 96 C 99.75 96 98.445312 95.265625 97.492188 94.195312 C 96.542969 93.125 96 91.582031 96 90 C 96 88.417969 96.542969 86.875 97.492188 85.804688 C 98.445312 84.734375 99.75 84 102 84 Z M 54 102 C 56.25 102 57.554688 102.734375 58.507812 103.804688 C 59.457031 104.875 60 106.417969 60 108 C 60 109.582031 59.457031 111.125 58.507812 112.195312 C 57.554688 113.265625 56.25 114 54 114 C 51.75 114 50.445312 113.265625 49.492188 112.195312 C 48.542969 111.125 48 109.582031 48 108 C 48 106.417969 48.542969 104.875 49.492188 103.804688 C 50.445312 102.734375 51.75 102 54 102 Z M 54 102 "/>
</g>
</svg>
